<svg xmlns="http://www.w3.org/2000/svg" width="64" height="64" viewBox="0 0 640 640" shape-rendering="geometricPrecision" text-rendering="geometricPrecision" image-rendering="optimizeQuality" fill-rule="evenodd" clip-rule="evenodd"><path d="M454.104 128.872H185.92C83.647 128.872 0 214.869 0 320c0 105.131 83.647 191.128 185.92 191.128h268.184C556.377 511.128 640 425.131 640 320c0-105.131-83.623-191.128-185.896-191.128zm-144.899 31.536a196.653 196.653 0 0 1 25.24 21.343l.107.13.378.354c4.83 4.854 9.401 10.016 13.677 15.33a191.756 191.756 0 0 1 12.284 17.092c19.335 30.153 30.661 66.024 30.874 104.517.06.342.083.72.083 1.098v.449l-.024.189v.106l-.059.319c-.13 26.74-5.634 52.17-15.437 75.296-1.571 3.792-3.33 7.56-5.173 11.268-9.52 18.969-21.957 36.166-36.71 50.906l-.106.107a286.95 286.95 0 0 1-5.468 5.244c-1.82 1.7-3.768 3.413-5.693 5.067-4.24 3.637-8.682 7.05-13.252 10.346H445.21l.933-.035H446.982l.154.035c20.811-.118 40.784-4.594 58.95-12.555a137.85 137.85 0 0 0 8.87-4.228c14.905-7.69 28.5-17.859 40.193-29.906l.059-.06v-.023l.106-.106.26-.272c3.85-3.945 7.477-8.09 10.843-12.449v-.024c3.508-4.464 6.815-9.13 9.803-13.937 15.437-24.685 24.473-53.989 24.603-85.312l-.048-.673v-.047l.024-.19v-.425l.047-.248c-.106-17.244-2.905-33.969-8.008-49.595a159.8 159.8 0 0 0-4.193-11.433c-7.878-19.122-19.37-36.426-33.473-50.965l-.106-.13v.024l-.07-.048-.107-.106-.059-.106a157.534 157.534 0 0 0-12.177-11.174 155.703 155.703 0 0 0-13.512-10.04c-23.835-15.732-52.088-24.968-82.265-25.11l-.732.036H445.529l-.13-.06H309.204zm-118.076 9.425c-84.296 0-152.648 68.351-152.648 152.648 0 84.296 68.351 152.671 152.648 152.671 84.296 0 152.671-68.375 152.671-152.67 0-84.297-68.375-152.649-152.671-152.649z"/></svg>