<svg xmlns="http://www.w3.org/2000/svg" 
viewBox="0 0 3333 1968" 
shape-rendering="geometricPrecision" 
text-rendering="geometricPrecision" 
image-rendering="optimizeQuality" 
fill-rule="evenodd" clip-rule="evenodd">
<path d="M2332 145h18c231 0 440 94 592 246s246 
362 246 592v44c0 4 0 7-1 11 0 4 0 7-1 11 0 4-1 7-1 11-1 11-2 21-3 32-24 188-111 358-240 486-135 135-317 225-517 243-4 0-7 1-11 1s-7 1-11 1-7 0-11 1h-62c-230 0-440-94-592-247-152-152-246-362-246-592 0-231 94-440 246-592s362-246 592-246zm18-145H984C713 0 467 111 289 289S0 713 0 984s111 517 289 695 424 289 695 289h1405c4 0 8 0 13-1 4 0 8 0 12-1 4 0 8-1 12-1s8-1 12-1c236-21 448-126 607-285 148-148 249-342 279-558 1-8 2-16 3-25 1-8 2-16 3-25 0-4 1-8 1-12s1-8 1-12 1-8 1-13c0-4 0-8 1-13v-13-13-13c0-271-111-517-289-695S2621-2 2350-2z" fill-rule="nonzero"/></svg>